<?xml version="1.0" standalone="no"?>
<!DOCTYPE svg PUBLIC "-//W3C//DTD SVG 20010904//EN"
 "http://www.w3.org/TR/2001/REC-SVG-20010904/DTD/svg10.dtd">
<svg version="1.0" xmlns="http://www.w3.org/2000/svg"
 width="300.000000pt" height="300.000000pt" viewBox="0 0 300.000000 300.000000"
 preserveAspectRatio="xMidYMid meet">
<metadata>
Created by potrace 1.10, written by Peter Selinger 2001-2011
</metadata>
<g transform="translate(0.000000,300.000000) scale(0.100000,-0.100000)"
fill="#000000" stroke="none">
<path d="M1342 2195 c-130 -36 -250 -116 -334 -222 -68 -84 -98 -137 -134
-233 -26 -69 -28 -87 -28 -215 -1 -149 13 -218 58 -297 25 -44 44 -52 22 -9
-9 16 -12 31 -9 34 3 4 -2 9 -11 13 -9 3 -13 10 -10 15 3 5 2 9 -3 9 -4 0 -9
20 -9 45 -1 30 2 43 10 39 6 -3 1 3 -10 13 -23 20 -37 60 -24 68 5 3 8 14 7
25 -1 10 -5 16 -9 14 -11 -7 -10 4 3 28 6 11 7 18 2 15 -4 -3 -7 12 -5 34 2
21 9 39 14 39 6 0 8 7 5 14 -4 9 2 17 15 21 14 5 17 10 9 18 -17 17 -13 37 14
91 13 27 22 52 19 57 -3 5 2 9 10 9 8 0 13 6 11 13 -3 6 0 19 5 27 9 13 11 13
21 0 9 -12 10 -12 5 4 -8 22 20 57 39 50 7 -3 16 -1 19 4 3 6 -1 12 -9 16 -25
9 -17 33 15 48 17 7 30 17 30 21 0 5 7 15 15 23 8 9 15 13 15 10 0 -3 14 8 30
24 17 17 37 30 45 30 8 0 15 5 15 11 0 5 5 7 10 4 6 -3 10 -2 10 4 0 6 12 14
26 17 14 4 42 15 62 24 20 10 41 16 48 13 7 -2 15 0 19 6 7 13 25 15 25 3 0
-5 -10 -14 -22 -20 -13 -6 -17 -11 -10 -11 6 -1 21 8 32 19 11 11 26 20 33 20
8 0 7 -3 -3 -10 -12 -7 -10 -9 7 -7 12 0 19 5 17 9 -3 4 1 8 8 9 7 0 21 2 30
4 10 2 20 -1 23 -5 3 -5 21 -7 40 -5 19 2 35 -1 35 -5 0 -5 10 -7 21 -5 12 3
29 1 37 -4 13 -7 12 -10 -6 -15 -12 -4 -22 -12 -22 -17 0 -6 9 -5 22 2 12 7
37 12 56 11 36 -2 76 -24 64 -37 -4 -5 -1 -5 6 -1 8 5 20 0 31 -13 10 -12 26
-21 36 -21 12 0 16 -6 13 -18 -4 -12 1 -18 13 -19 10 -1 29 -13 43 -27 13 -14
27 -26 31 -26 9 0 65 -60 57 -60 -4 -1 3 -9 15 -19 12 -10 19 -21 16 -25 -4
-3 -1 -6 5 -6 6 0 9 -7 6 -15 -4 -8 -1 -15 6 -15 6 0 9 -4 5 -9 -3 -5 5 -17
17 -25 12 -9 19 -19 15 -22 -4 -4 -3 -12 2 -18 5 -6 17 -46 26 -88 9 -43 20
-76 23 -74 12 7 10 -89 -2 -96 -8 -6 -8 -8 1 -8 6 0 11 -13 11 -30 -1 -16 -4
-30 -7 -30 -3 0 -7 -10 -8 -22 -1 -13 -4 -45 -6 -72 -2 -26 -11 -52 -18 -57
-8 -5 -10 -9 -5 -9 5 0 0 -10 -12 -23 -16 -17 -18 -24 -8 -24 18 0 61 90 53
111 -3 8 -1 16 4 18 20 7 32 167 19 246 -44 274 -205 479 -448 570 -85 32
-275 41 -360 17z"/>
<path d="M1480 2036 c0 -9 -7 -13 -20 -11 -11 2 -20 -1 -20 -7 0 -7 -7 -3 -15
8 -13 17 -14 17 -15 2 0 -9 -5 -20 -12 -24 -6 -4 -8 -3 -5 2 3 6 -4 16 -16 24
-20 12 -21 12 -9 -3 9 -10 10 -17 2 -22 -5 -3 -10 -2 -10 3 0 5 -7 9 -15 9 -8
0 -15 -9 -15 -20 0 -11 -3 -18 -6 -14 -12 12 -169 -80 -187 -110 -5 -8 -20
-18 -33 -23 -14 -6 -24 -18 -24 -29 0 -10 -7 -24 -15 -31 -8 -7 -15 -21 -15
-31 0 -10 -10 -21 -21 -24 -13 -4 -17 -10 -11 -14 15 -9 -3 -35 -20 -29 -9 4
-14 -2 -15 -15 -2 -15 1 -17 10 -8 6 6 15 11 21 11 5 0 -1 -9 -13 -19 -12 -11
-22 -22 -22 -25 3 -26 -2 -36 -16 -36 -13 0 -14 -3 -6 -8 15 -9 7 -91 -9 -107
-8 -7 -8 -5 -3 5 6 11 3 10 -12 -3 -11 -9 -23 -14 -28 -10 -4 5 -5 2 -1 -5 4
-7 17 -10 31 -6 21 5 23 3 21 -28 -1 -19 -6 -40 -11 -48 -5 -9 -4 -11 3 -6 8
5 12 -1 12 -14 0 -13 -4 -19 -12 -14 -7 5 -8 3 -2 -7 11 -18 14 -33 18 -89 5
-62 5 -62 16 -55 6 3 10 2 10 -4 0 -5 3 -17 6 -25 5 -12 2 -15 -12 -10 -16 5
-16 4 -4 -5 13 -10 13 -12 0 -21 -11 -7 -11 -10 -2 -10 7 0 11 -4 7 -9 -3 -5
7 -22 22 -38 60 -62 62 -57 23 44 -80 205 -75 384 17 567 84 168 241 281 408
293 212 16 390 -94 488 -299 46 -95 67 -164 67 -216 0 -16 3 -32 7 -36 13 -12
2 -109 -22 -191 -21 -71 -36 -106 -93 -212 -8 -13 -11 -27 -8 -30 3 -3 10 6
16 21 5 15 14 25 19 22 4 -3 19 6 31 19 13 14 20 25 15 25 -4 0 -14 -8 -21
-17 -14 -18 -14 -13 1 32 5 16 8 17 15 5 8 -12 10 -9 9 10 -1 31 4 51 16 70 5
8 10 20 11 25 1 6 7 30 14 54 6 24 12 56 12 72 1 16 5 29 9 29 5 0 7 10 5 23
-3 12 -5 30 -5 40 -1 10 -5 15 -11 12 -5 -3 -10 3 -10 14 0 11 4 22 9 26 6 3
6 17 1 35 -5 17 -6 30 -3 30 3 0 -2 9 -13 21 -16 17 -16 22 -4 29 11 7 12 10
2 10 -7 0 -10 5 -7 10 3 6 -1 10 -11 10 -13 0 -14 3 -5 14 9 11 9 15 -1 19
-10 4 -9 6 2 6 10 1 8 6 -8 17 -23 16 -31 41 -9 28 6 -4 0 5 -15 21 -31 31
-34 44 -15 65 10 12 9 12 -5 1 -14 -10 -18 -9 -29 11 -6 13 -19 27 -27 32 -12
7 -12 10 -1 18 10 7 6 8 -14 5 -24 -4 -26 -2 -15 12 7 9 8 13 4 9 -5 -5 -23 7
-39 25 -17 17 -27 27 -23 20 8 -14 -51 13 -76 35 -10 8 -18 12 -18 8 0 -3 -12
1 -26 10 -14 10 -42 17 -62 16 -26 -1 -33 1 -22 8 8 5 17 7 20 5 3 -2 6 5 6
16 0 11 -4 18 -9 16 -5 -1 -8 -7 -7 -12 2 -10 -26 -23 -51 -24 -8 -1 -24 6
-35 15 -10 8 -13 12 -5 8 9 -5 12 -3 7 4 -10 17 -36 15 -36 -2z"/>
<path d="M1443 1900 c-59 -36 -60 -41 -66 -326 -3 -144 -2 -278 3 -299 18 -79
98 -124 166 -92 67 33 68 36 67 362 -1 199 -5 300 -13 315 -15 28 -68 60 -100
60 -14 0 -39 -9 -57 -20z m125 -55 c19 -24 20 -39 19 -208 -2 -165 -4 -185
-22 -209 -23 -30 -66 -58 -89 -58 -28 0 -66 46 -66 80 0 17 -3 29 -7 27 -8 -5
-6 292 2 328 2 11 4 24 4 28 0 10 51 52 71 59 20 7 64 -16 88 -47z m16 -458
c-16 -9 -16 -11 1 -23 10 -8 14 -14 8 -14 -8 0 -10 -16 -7 -44 3 -37 0 -50
-22 -75 -30 -35 -40 -38 -66 -14 -18 16 -18 16 -12 0 5 -15 3 -16 -21 -7 -50
19 -60 38 -64 124 l-3 81 30 -29 c26 -24 36 -27 64 -22 20 4 48 21 69 42 32
34 34 34 37 13 2 -13 -3 -26 -14 -32z"/>
<path d="M1225 1802 c-121 -97 -171 -214 -163 -385 8 -156 47 -236 219 -442
98 -117 208 -235 219 -235 10 0 194 207 282 316 126 157 173 298 151 452 -18
120 -50 183 -141 271 l-77 75 -6 -280 c-3 -153 -10 -293 -16 -310 -41 -120
-100 -174 -188 -174 -88 0 -169 68 -197 164 -7 26 -12 140 -12 318 -1 153 -3
278 -6 278 -4 0 -33 -22 -65 -48z m35 -77 c0 -18 -3 -35 -7 -38 -5 -2 -2 -2 5
0 10 2 12 -5 8 -25 -9 -39 -10 -111 -3 -118 3 -4 0 -19 -9 -35 -13 -25 -13
-28 1 -23 10 4 15 0 15 -11 0 -9 -4 -13 -10 -10 -6 4 -7 -2 -1 -16 10 -28 -25
-99 -48 -99 -9 -1 -26 -17 -39 -37 l-23 -36 23 16 c13 8 22 20 21 26 -2 6 4 8
12 5 8 -4 17 1 21 10 18 46 53 -7 40 -60 -4 -15 -3 -23 3 -20 10 6 21 -16 21
-42 0 -10 10 -23 21 -31 18 -10 19 -15 8 -22 -11 -7 -11 -9 3 -9 9 0 25 -17
35 -37 13 -28 23 -37 39 -35 29 4 46 -18 31 -39 -17 -23 -107 -73 -115 -64 -4
4 -2 10 5 12 13 5 -20 43 -37 43 -5 0 -10 4 -10 8 0 17 -39 54 -50 47 -6 -3
-10 -3 -9 2 4 24 -2 53 -11 48 -9 -6 -14 7 -11 27 0 4 -9 12 -20 18 -11 7 -18
18 -15 26 3 7 -1 17 -8 21 -27 16 -36 47 -19 65 14 16 14 18 -1 24 -9 3 -16
15 -16 26 0 10 -4 17 -9 13 -6 -3 -8 14 -7 39 3 37 1 44 -13 39 -9 -3 -6 3 8
15 16 13 20 21 12 26 -6 4 -11 2 -11 -5 0 -7 -3 -10 -6 -7 -3 3 2 23 10 43 9
20 13 41 10 46 -3 5 3 10 13 10 17 1 17 2 1 6 -22 6 -23 17 -3 33 8 7 15 19
15 27 0 8 4 12 9 9 4 -3 7 6 5 19 -1 14 2 25 7 25 5 0 9 5 9 11 0 17 72 77 87
72 7 -3 13 -20 13 -38z m545 -6 c-3 -3 7 -19 20 -33 30 -33 31 -34 3 -46 -22
-8 -22 -9 -2 -9 11 -1 26 5 33 12 11 10 13 9 8 -5 -3 -10 0 -24 8 -32 18 -17
19 -36 4 -36 -8 0 -8 -5 1 -15 12 -14 7 -20 -14 -16 -5 1 -2 -8 7 -21 8 -13
21 -22 28 -20 10 2 10 0 0 -12 -9 -11 -9 -16 0 -21 8 -6 7 -10 -2 -16 -10 -6
-11 -9 -1 -9 6 0 12 -7 12 -16 0 -8 -4 -12 -10 -9 -5 3 -10 -1 -10 -9 0 -9 5
-16 10 -16 6 0 10 -8 10 -17 0 -14 -2 -15 -9 -5 -5 9 -11 -13 -15 -58 -5 -47
-12 -73 -22 -77 -7 -3 -12 -9 -9 -13 3 -4 -3 -14 -12 -21 -14 -12 -16 -12 -8
0 6 10 4 12 -5 6 -10 -6 -12 -4 -7 8 4 10 2 17 -4 17 -7 0 -9 -10 -4 -27 11
-45 11 -48 -6 -47 -11 1 -15 -5 -12 -17 3 -11 -1 -21 -10 -25 -9 -3 -13 -12
-10 -21 4 -11 2 -14 -5 -9 -6 3 -16 -3 -22 -14 -6 -11 -18 -20 -28 -21 -11 0
-12 -2 -4 -6 10 -4 10 -8 1 -19 -6 -8 -16 -11 -21 -7 -6 3 -9 0 -6 -8 2 -7 -6
-23 -19 -35 -12 -11 -20 -23 -17 -26 3 -4 1 -9 -4 -12 -11 -7 -75 35 -129 84
l-38 35 35 6 c19 3 45 2 58 -3 18 -6 22 -4 22 13 0 14 5 19 14 16 9 -4 17 2
21 12 3 11 17 30 31 44 14 14 26 39 27 55 1 18 6 27 11 22 5 -5 15 -6 22 -3
11 4 11 8 -2 20 -14 14 -13 17 11 33 25 17 26 18 9 29 -17 9 -17 10 5 11 24 0
24 1 5 14 -32 24 -25 73 9 67 5 -1 6 3 2 9 -3 6 -10 8 -15 5 -4 -2 -7 42 -6
99 0 57 3 103 6 101 3 -2 3 33 1 77 l-3 80 30 -18 c17 -10 29 -21 27 -25z
m-300 -709 c11 -16 23 -30 27 -30 4 0 16 -7 25 -15 10 -8 26 -21 37 -28 17
-13 17 -16 3 -43 -8 -16 -19 -29 -24 -29 -4 0 -7 -3 -5 -7 1 -5 -3 -8 -8 -8
-5 0 -10 -4 -10 -10 0 -22 -41 -51 -62 -44 -16 5 -18 8 -7 15 11 7 10 9 -3 9
-10 0 -18 5 -18 10 0 6 -5 10 -10 10 -6 0 -23 12 -38 26 -15 15 -21 23 -14 20
6 -4 12 -2 12 3 0 6 -5 11 -11 11 -12 0 -44 30 -32 30 4 0 0 5 -9 11 -28 16
-22 26 27 48 25 11 48 27 51 35 10 26 47 18 69 -14z"/>
</g>
</svg>
